<svg xmlns="http://www.w3.org/2000/svg" xmlns:xlink="http://www.w3.org/1999/xlink" width="396" height="72.00006103515625" viewBox="0 0 396 72.00006103515625" fill="none">
<path d="M395 11.4087C395 11.1886 394.406 11 393.714 11L330.286 11C329.594 11 329 11.1886 329 11.4087L329 31.5913C329 31.8114 329.594 32 330.286 32L393.714 32C394.406 32 395 31.8114 395 31.5913L395 11.4087Z"   fill="#7948EA" >
</path>
<g filter="url(#filter_13_15)">
<path d="M19.014 61.3561L39.9836 61.3561C47.4141 61.3561 54.5404 58.2292 59.794 52.6634C65.0482 47.0976 68 39.5493 68 31.678C68 23.8068 65.0482 16.2579 59.794 10.6921C54.5404 5.12629 47.4141 2 39.9836 2L19.014 2C17.1453 2 15.3528 2.78647 14.031 4.18608C12.7097 5.5863 11.9673 7.4845 11.9673 9.46462L11.9673 53.8915C11.9673 54.8714 12.1494 55.8425 12.5035 56.7483C12.8576 57.6535 13.3771 58.4767 14.031 59.1694C14.6854 59.8627 15.4626 60.4129 16.3171 60.7881C17.1722 61.1632 18.0889 61.3561 19.014 61.3561Z"   fill="#2A82E4" >
</path>
<path d="M32.0164 6.64392L11.0467 6.64392C10.1216 6.64392 9.20488 6.83683 8.35038 7.21196C7.49532 7.58709 6.71815 8.13673 6.06425 8.83C5.40978 9.52328 4.89036 10.346 4.53623 11.2517C4.18211 12.1575 4 13.128 4 14.1079L4 58.5348C4 60.5149 4.74243 62.4137 6.06425 63.8133C7.3855 65.2135 9.17798 66 11.0467 66L32.0164 66C39.4469 66 46.5731 62.8731 51.8273 57.3073C57.0809 51.7415 60.0327 44.1926 60.0327 36.322C60.0327 28.4507 57.0809 20.9018 51.8273 15.336C46.5731 9.7702 39.4469 6.64392 32.0164 6.64392Z"   fill="#7948EA" >
</path>
<path d="M11.7047 37.7492L23.382 50.2728L26.3178 47.0165L17.6829 37.7492L33.9964 20.3416L28.0316 20.3416L11.7047 37.7492Z"   fill="#FFFFFF" >
</path>
<path d="M37.5738 30.5671C37.8585 31.2597 38.3337 31.8479 38.9388 32.2567C39.5437 32.6656 40.2513 32.8766 40.9712 32.8628L40.9311 32.7933C41.8801 32.7969 42.7918 32.4065 43.4667 31.7079C44.1412 31.009 44.5243 30.0585 44.531 29.0648C44.531 28.3107 44.3165 27.5736 43.915 26.9475C43.5134 26.3217 42.9433 25.8349 42.2766 25.5497C41.6102 25.2644 40.8777 25.1933 40.1726 25.3455C39.4672 25.4977 38.8212 25.8666 38.3169 26.4046C37.8126 26.9427 37.4724 27.6261 37.34 28.3674C37.2078 29.1087 37.2893 29.8744 37.5738 30.5671ZM37.4111 20.3416L21.0991 37.7462L32.7752 50.184L49.1006 32.7933L49.1006 20.3416L37.4111 20.3416Z" fill-rule="evenodd"  fill="#FFFFFF" >
</path>
</g>
<g >
<path     fill="#000000"  d="M75.88 20.8L88.648 20.8Q96.568 20.8 100.696 25.264Q104.824 29.728 104.824 37.648Q104.824 45.856 100.696 50.128Q96.568 54.4 88.456 54.4L75.88 54.4L75.88 20.8ZM88.744 48.448Q90.76 48.448 92.584 47.152Q94.408 45.856 95.536 43.408Q96.664 40.96 96.664 37.696Q96.664 34.576 95.584 32.104Q94.504 29.632 92.68 28.192Q90.856 26.752 88.744 26.752L83.8 26.752L83.8 48.448L88.744 48.448ZM132.712 53.008Q130.888 54.112 128.464 54.64Q126.04 55.168 123.784 55.168Q116.104 55.168 112.144 51.52Q108.184 47.872 108.184 41.296Q108.184 34.768 111.712 31.288Q115.24 27.808 121.336 27.808Q127.384 27.808 130.912 31.288Q134.44 34.768 134.44 41.296Q134.44 42.016 134.344 43.36L115.672 43.36Q116.728 49.552 123.784 49.552Q128.728 49.552 132.712 46.624L132.712 53.008ZM127.192 37.984Q126.568 35.584 125.032 34.432Q123.496 33.28 121.336 33.28Q119.32 33.28 117.904 34.48Q116.488 35.68 115.912 37.984L127.192 37.984ZM161.848 53.008Q160.024 54.112 157.6 54.64Q155.176 55.168 152.92 55.168Q145.24 55.168 141.28 51.52Q137.32 47.872 137.32 41.296Q137.32 34.768 140.848 31.288Q144.376 27.808 150.472 27.808Q156.52 27.808 160.048 31.288Q163.576 34.768 163.576 41.296Q163.576 42.016 163.48 43.36L144.808 43.36Q145.864 49.552 152.92 49.552Q157.864 49.552 161.848 46.624L161.848 53.008ZM156.328 37.984Q155.704 35.584 154.168 34.432Q152.632 33.28 150.472 33.28Q148.456 33.28 147.04 34.48Q145.624 35.68 145.048 37.984L156.328 37.984ZM166.456 65.344Q167.032 63.712 167.224 60.784Q167.416 57.856 167.416 55.456L167.416 28.48L175.096 28.48L175.096 30.88Q176.68 29.44 178.576 28.648Q180.472 27.856 182.392 27.856Q185.944 27.856 188.608 29.584Q191.272 31.312 192.736 34.408Q194.2 37.504 194.2 41.488Q194.2 45.472 192.76 48.52Q191.32 51.568 188.632 53.296Q185.944 55.024 182.392 55.024Q178.072 55.024 175.096 52.528L175.096 55.456Q175.096 58 174.832 60.904Q174.568 63.808 174.136 65.344L166.456 65.344ZM175.096 46.288Q176.104 48.256 177.664 48.88Q179.224 49.504 180.52 49.504Q182.152 49.504 183.616 48.424Q185.08 47.344 185.968 45.52Q186.856 43.696 186.856 41.488Q186.856 39.232 185.968 37.384Q185.08 35.536 183.616 34.48Q182.152 33.424 180.52 33.424Q179.224 33.424 177.664 34.048Q176.104 34.672 175.096 36.64L175.096 46.288ZM196.216 20.8L221.464 20.8L221.464 27.28L212.824 27.28L212.824 54.4L204.856 54.4L204.856 27.28L196.216 27.28L196.216 20.8ZM232.36 28.48L232.36 31.264Q233.608 29.92 235.36 29.176Q237.112 28.432 238.84 28.432Q240.04 28.432 241.096 28.768L241.096 34.672Q239.752 34.336 238.552 34.336Q236.728 34.336 235.096 34.936Q233.464 35.536 232.36 36.832L232.36 54.4L224.68 54.4L224.68 28.48L232.36 28.48ZM255.304 55.024Q251.656 55.024 248.944 53.296Q246.232 51.568 244.768 48.544Q243.304 45.52 243.304 41.488Q243.304 37.504 244.768 34.408Q246.232 31.312 248.896 29.584Q251.56 27.856 255.112 27.856Q256.744 27.856 258.4 28.456Q260.056 29.056 261.496 30.112L261.496 28.48L269.176 28.48L269.176 48.352Q269.176 52.24 270.136 54.4L262.936 54.4Q262.6 53.728 262.36 52.672Q259.384 55.024 255.304 55.024ZM250.648 41.488Q250.648 43.696 251.536 45.52Q252.424 47.344 253.888 48.424Q255.352 49.504 256.984 49.504Q258.136 49.504 259.576 49Q261.016 48.496 262.072 46.816L262.072 36.064Q261.016 34.384 259.6 33.904Q258.184 33.424 256.984 33.424Q255.352 33.424 253.888 34.48Q252.424 35.536 251.536 37.384Q250.648 39.232 250.648 41.488ZM281.656 28.384L281.656 31.504Q283.432 29.968 285.712 29.104Q287.992 28.24 290.248 28.24Q293.944 28.24 296.128 30.4Q298.312 32.56 298.312 36.016L298.312 54.304L290.632 54.304L290.632 37.312Q290.632 35.92 289.48 35.032Q288.328 34.144 286.744 34.144Q285.736 34.144 284.224 34.816Q282.712 35.488 281.656 36.448L281.656 54.304L273.976 54.304L273.976 28.384L281.656 28.384ZM313.528 54.976Q310.6 55.12 307.6 54.52Q304.6 53.92 302.392 52.672L302.392 45.76Q304.36 47.2 307.12 48.136Q309.88 49.072 311.992 48.928Q313.48 48.832 314.152 48.28Q314.824 47.728 314.92 47.152Q315.16 45.664 314.2 44.896Q313.24 44.128 310.6 43.408Q307.672 42.592 305.944 41.512Q304.216 40.432 303.328 39.064Q302.44 37.696 302.44 35.584Q302.44 33.376 303.592 31.624Q304.744 29.872 307.24 28.864Q309.736 27.856 312.616 27.856Q314.776 27.856 316.984 28.264Q319.192 28.672 320.68 29.344L320.68 35.536Q319.144 34.768 317.056 34.168Q314.968 33.568 313.432 33.568Q310.168 33.568 309.88 35.296Q309.736 36.304 310.816 37.072Q311.896 37.84 313.912 38.464Q316.792 39.376 318.64 40.336Q320.488 41.296 321.544 42.832Q322.6 44.368 322.6 46.768Q322.6 50.32 320.056 52.552Q317.512 54.784 313.528 54.976Z">
</path>
</g>
<g >
<path     fill="#FFFFFF"  d="M342.416 27.892Q342.24 27.908 341.872 27.908Q339.712 27.908 338.032 26.98L338.032 24.628Q338.912 25.172 339.968 25.54Q341.024 25.908 341.888 25.908Q342.592 25.908 343 25.556Q343.408 25.204 343.408 24.756Q343.408 24.132 342.928 23.612Q342.448 23.092 341.392 22.772Q340.176 22.388 339.496 21.996Q338.816 21.604 338.472 21.012Q338.128 20.42 338.128 19.508Q338.128 18.644 338.544 17.932Q338.96 17.22 339.768 16.788Q340.576 16.356 341.696 16.308Q341.84 16.292 342.144 16.292Q342.976 16.292 343.816 16.46Q344.656 16.628 345.232 16.884L345.232 18.948Q344.608 18.676 343.776 18.5Q342.944 18.324 342.304 18.324Q341.488 18.324 341.056 18.612Q340.624 18.9 340.624 19.412Q340.624 19.876 341.088 20.244Q341.552 20.612 342.528 20.948Q343.696 21.284 344.432 21.708Q345.168 22.132 345.584 22.812Q346 23.492 346 24.516Q346 25.492 345.552 26.244Q345.104 26.996 344.296 27.42Q343.488 27.844 342.416 27.892ZM347.984 19.06L347.984 16.596L350.384 16.596L350.384 19.06L352.048 19.06L352.048 21.012L350.384 21.012L350.384 24.724Q350.384 25.188 350.456 25.428Q350.528 25.668 350.72 25.756Q350.912 25.844 351.28 25.844Q351.52 25.844 351.688 25.828Q351.856 25.812 351.984 25.78L351.984 27.748Q351.312 27.828 350.736 27.828Q349.632 27.828 349.088 27.604Q348.544 27.38 348.264 26.828Q347.984 26.276 347.984 25.252L347.984 21.012L346.736 21.012L346.736 19.06L347.984 19.06ZM359.184 27.716Q358.928 27.236 358.88 26.692Q358.288 27.22 357.464 27.564Q356.64 27.908 355.84 27.908Q354.608 27.908 353.88 27.188Q353.152 26.468 353.152 25.332L353.152 19.06L355.712 19.06L355.712 24.9Q355.712 25.364 356.024 25.66Q356.336 25.956 356.848 25.956Q357.184 25.956 357.752 25.716Q358.32 25.476 358.704 25.188L358.704 19.06L361.264 19.06L361.264 26.052Q361.264 26.58 361.328 26.94Q361.392 27.3 361.584 27.716L359.184 27.716ZM366.48 27.908Q365.296 27.908 364.4 27.34Q363.504 26.772 363.024 25.748Q362.544 24.724 362.544 23.412Q362.544 22.084 363.032 21.052Q363.52 20.02 364.408 19.444Q365.296 18.868 366.48 18.868Q367.024 18.868 367.576 19.06Q368.128 19.252 368.608 19.62L368.608 15.396L371.168 15.396L371.168 25.7Q371.168 26.98 371.488 27.7L369.088 27.7Q368.976 27.476 368.896 27.124Q367.888 27.908 366.48 27.908ZM364.992 23.412Q364.992 24.148 365.288 24.756Q365.584 25.364 366.072 25.724Q366.56 26.084 367.104 26.084Q367.536 26.084 368.056 25.876Q368.576 25.668 368.912 25.012L368.912 21.796Q368.576 21.124 368.056 20.916Q367.536 20.708 367.104 20.708Q366.56 20.708 366.072 21.06Q365.584 21.412 365.288 22.036Q364.992 22.66 364.992 23.412ZM375.536 19.06L375.536 27.7L372.976 27.7L372.976 19.06L375.536 19.06ZM372.976 15.396L375.536 15.396L375.536 17.956L372.976 17.956L372.976 15.396ZM381.568 27.908Q380.208 27.908 379.176 27.348Q378.144 26.788 377.584 25.756Q377.024 24.724 377.024 23.316Q377.024 21.156 378.24 20.004Q379.456 18.852 381.568 18.852Q383.664 18.852 384.88 20.004Q386.096 21.156 386.096 23.316Q386.096 24.724 385.536 25.756Q384.976 26.788 383.952 27.348Q382.928 27.908 381.568 27.908ZM379.552 23.316Q379.552 24.548 380.112 25.3Q380.672 26.052 381.568 26.052Q382.464 26.052 383.016 25.3Q383.568 24.548 383.568 23.316Q383.568 22.036 383.032 21.372Q382.496 20.708 381.568 20.708Q380.64 20.708 380.096 21.372Q379.552 22.036 379.552 23.316Z">
</path>
</g>
<defs>
<filter id="filter_13_15" x="0" y="0" width="72" height="72.00006103515625" filterUnits="userSpaceOnUse" color-interpolation-filters="sRGB">
<feFlood flood-opacity="0" result="feFloodId_13_15"/>
<feColorMatrix in="SourceAlpha" type="matrix" values="0 0 0 0 0 0 0 0 0 0 0 0 0 0 0 0 0 0 127 0" result="hardAlpha_13_15"/>
<feOffset dx="0" dy="2"/>
<feGaussianBlur stdDeviation="2"/>
<feComposite in2="hardAlpha_13_15" operator="out"/>
<feColorMatrix type="matrix" values="0 0 0 0 0 0 0 0 0 0 0 0 0 0 0 0 0 0 0.25 0"/>
<feBlend mode="normal" in2="feFloodId_13_15" result="dropShadow_1_13_15"/>
<feBlend mode="normal" in="SourceGraphic" in2="dropShadow_1_13_15" result="shape_13_15"/>
</filter>
</defs>
</svg>
