<svg width="651" height="89" viewBox="0 0 651 89" fill="none" xmlns="http://www.w3.org/2000/svg">
<path fill-rule="evenodd" clip-rule="evenodd" d="M7.88705 4.59161C4.41745 5.71051 1.76347 8.32752 0.579159 11.7983C0.115353 13.1578 0.0313616 15.1788 0.0313616 24.9706V36.5371H6.75503C12.8695 36.5371 13.4935 36.4841 13.6457 35.9498C13.841 35.2645 15.0779 28.9616 16.5604 21.0995C17.1345 18.0539 17.683 15.2976 17.7794 14.9748C18.026 14.1472 18.8764 14.2445 19.2468 15.1426C19.4178 15.558 20.3285 21.863 21.2703 29.1539C23.1164 43.4475 23.9891 49.3933 24.208 49.1758C24.2839 49.1 24.8698 46.3642 25.5097 43.0958C26.1495 39.8277 26.7594 37.015 26.8646 36.8455C26.9702 36.6757 29.8249 36.5371 33.2088 36.5371H39.3614L39.7922 35.3521C40.2216 34.1705 40.2175 34.1614 38.2031 31.9008C36.2848 29.7479 36.1178 29.6402 34.885 29.757C31.3604 30.0916 30.1302 25.1421 33.4028 23.7937C34.6832 23.2658 36.07 23.2671 37.1733 24.3649C37.9097 25.0975 38.2031 25.875 38.0685 27.0608C37.8988 28.5555 37.5946 28.6297 39.5871 30.7604L41.6288 32.9442L43.8517 32.9787L46.0746 33.0133L48.0948 30.8903C49.9983 28.8898 50.117 28.6683 50.1484 27.0608C50.1777 25.5744 49.9544 25.2267 50.9235 24.3649C51.8491 23.542 52.6064 23.4077 53.5903 23.5668C55.8935 23.9387 57.0663 25.9536 56.192 28.036C55.6317 29.3697 54.6603 29.8996 52.9933 29.7798C51.7742 29.6922 51.558 29.8318 49.5216 32.0209L47.35 34.3557L47.8698 35.4464L48.3896 36.5371H51.0267C52.6367 36.5371 53.6642 36.4005 53.6642 36.1864C53.6642 35.4229 55.3363 34.1879 56.3694 34.1879C58.4952 34.1879 59.7142 35.3498 59.7142 37.3761C59.7142 39.4109 58.4955 40.5643 56.3462 40.5643C55.5471 40.5643 54.9919 40.2589 54.1725 39.3689C53.1633 38.2725 52.9498 38.1869 51.5971 38.3363C50.7859 38.4259 49.6468 38.5108 49.0656 38.5249C47.2525 38.5692 47.3801 39.5931 49.5031 42.0369C51.3381 44.1492 51.3671 44.1663 52.8398 44.0012C54.6937 43.7932 55.8169 44.4566 56.3546 46.0772C57.4283 49.3138 53.3626 51.7264 50.9235 49.2997C50.0725 48.453 49.9335 48.0754 50.0003 46.7921C50.0735 45.3819 49.9568 45.1527 48.2452 43.3424L46.4119 41.4033L43.7627 41.4282L41.1131 41.4533L39.3776 43.422C37.7939 45.2181 37.6418 45.5346 37.6418 47.0337C37.6418 48.418 37.4927 48.8043 36.6953 49.4869C35.342 50.6451 33.6564 50.5783 32.3875 49.3158C30.056 46.9958 32.0849 43.2602 35.2475 44.0499C35.9319 44.2207 36.3698 43.9009 38.0685 41.9886C39.8121 40.026 40.0347 39.6267 39.7429 38.984C39.4164 38.2648 39.245 38.2423 34.045 38.2343C28.8126 38.2259 28.676 38.2436 28.365 38.9756C28.1896 39.388 27.3612 43.474 26.5243 48.0556C25.6871 52.6376 24.9153 56.5262 24.8087 56.6973C24.4792 57.2282 23.361 57.04 23.1694 56.4215C22.9619 55.7529 20.3781 37.9406 19.2255 29.2328C18.8035 26.0462 18.3562 23.5544 18.2314 23.6953C18.1066 23.8366 17.4371 26.8215 16.7436 30.3285C16.0497 33.8355 15.4048 37.0445 15.31 37.46L15.1373 38.2151H7.56863H0L0.0998414 50.3806L0.200025 62.5462L1.13506 64.44C2.16858 66.5335 4.29062 68.6706 6.39748 69.7398C7.15272 70.1234 8.87571 70.5754 10.2256 70.7449C11.5759 70.914 23.1569 71.0265 35.9613 70.9946L59.242 70.9362L61.4764 69.8421C64.077 68.5692 65.8604 66.7506 67.1112 64.0967L68 62.2106V37.5439V12.8773L67.0562 10.8637C65.7909 8.16476 63.1251 5.50612 60.8264 4.65034C59.098 4.00699 58.1784 3.98451 34.3402 4.00431C12.1156 4.02277 9.46905 4.0815 7.88705 4.59161Z" fill="url(#paint0_linear_388_494)"/>
<path d="M102.872 17.2C106.371 17.2 109.549 17.7547 112.408 18.864C115.309 19.9307 117.805 21.4667 119.896 23.472C121.987 25.4347 123.608 27.7813 124.76 30.512C125.912 33.2427 126.488 36.272 126.488 39.6C126.488 42.8853 125.912 45.8933 124.76 48.624C123.608 51.3547 121.965 53.7227 119.832 55.728C117.699 57.7333 115.16 59.2907 112.216 60.4C109.315 61.4667 106.093 62 102.552 62H83.928V17.2H102.872ZM103.128 53.744C105.048 53.744 106.797 53.4027 108.376 52.72C109.955 52.0373 111.32 51.0773 112.472 49.84C113.667 48.56 114.584 47.0667 115.224 45.36C115.864 43.6533 116.184 41.7547 116.184 39.664C116.184 37.5733 115.843 35.6747 115.16 33.968C114.477 32.2187 113.539 30.704 112.344 29.424C111.149 28.1013 109.72 27.0987 108.056 26.416C106.435 25.7333 104.643 25.392 102.68 25.392H94.04V53.744H103.128ZM155.388 42.032C155.345 40.4533 155.004 39.1093 154.364 38C153.766 36.848 152.892 35.952 151.74 35.312C150.588 34.672 149.265 34.352 147.772 34.352C146.108 34.352 144.657 34.7787 143.42 35.632C142.182 36.4853 141.222 37.6587 140.54 39.152C139.857 40.6453 139.516 42.3733 139.516 44.336C139.516 46.5547 139.9 48.4533 140.668 50.032C141.436 51.6107 142.524 52.8267 143.932 53.68C145.34 54.5333 146.961 54.96 148.796 54.96C152.124 54.96 155.025 53.7227 157.5 51.248L162.684 56.368C160.977 58.288 158.865 59.76 156.348 60.784C153.873 61.808 151.078 62.32 147.964 62.32C144.294 62.32 141.116 61.5947 138.428 60.144C135.74 58.6933 133.649 56.6667 132.156 54.064C130.705 51.4187 129.98 48.368 129.98 44.912C129.98 41.3707 130.726 38.2987 132.22 35.696C133.713 33.0507 135.782 31.0027 138.428 29.552C141.116 28.1013 144.209 27.3547 147.708 27.312C151.761 27.312 155.068 28.1653 157.628 29.872C160.23 31.536 162.108 33.904 163.26 36.976C164.454 40.0053 164.902 43.6107 164.604 47.792H138.108V42.032H155.388ZM193.575 42.032C193.532 40.4533 193.191 39.1093 192.551 38C191.954 36.848 191.079 35.952 189.927 35.312C188.775 34.672 187.452 34.352 185.959 34.352C184.295 34.352 182.844 34.7787 181.607 35.632C180.37 36.4853 179.41 37.6587 178.727 39.152C178.044 40.6453 177.703 42.3733 177.703 44.336C177.703 46.5547 178.087 48.4533 178.855 50.032C179.623 51.6107 180.711 52.8267 182.119 53.68C183.527 54.5333 185.148 54.96 186.983 54.96C190.311 54.96 193.212 53.7227 195.687 51.248L200.871 56.368C199.164 58.288 197.052 59.76 194.535 60.784C192.06 61.808 189.266 62.32 186.151 62.32C182.482 62.32 179.303 61.5947 176.615 60.144C173.927 58.6933 171.836 56.6667 170.343 54.064C168.892 51.4187 168.167 48.368 168.167 44.912C168.167 41.3707 168.914 38.2987 170.407 35.696C171.9 33.0507 173.97 31.0027 176.615 29.552C179.303 28.1013 182.396 27.3547 185.895 27.312C189.948 27.312 193.255 28.1653 195.815 29.872C198.418 31.536 200.295 33.904 201.447 36.976C202.642 40.0053 203.09 43.6107 202.791 47.792H176.295V42.032H193.575ZM230.355 27.312C233.597 27.312 236.413 28.0587 238.803 29.552C241.235 31.0027 243.133 33.0507 244.499 35.696C245.864 38.3413 246.547 41.4347 246.547 44.976C246.547 48.432 245.885 51.4613 244.562 54.064C243.24 56.6667 241.384 58.6933 238.995 60.144C236.605 61.5947 233.789 62.32 230.547 62.32C227.56 62.32 225 61.6373 222.867 60.272C220.733 58.864 219.091 56.8587 217.939 54.256C216.787 51.6107 216.211 48.5173 216.211 44.976C216.211 41.3067 216.765 38.1493 217.875 35.504C219.027 32.8587 220.648 30.832 222.739 29.424C224.872 28.016 227.411 27.312 230.355 27.312ZM228.051 34.992C226.387 34.992 224.893 35.4187 223.571 36.272C222.291 37.0827 221.288 38.2133 220.562 39.664C219.837 41.1147 219.475 42.8 219.475 44.72C219.475 46.64 219.837 48.3467 220.562 49.84C221.288 51.2907 222.291 52.4213 223.571 53.232C224.893 54.0427 226.387 54.448 228.051 54.448C229.757 54.448 231.251 54.0427 232.531 53.232C233.811 52.4213 234.792 51.2907 235.475 49.84C236.2 48.3467 236.562 46.64 236.562 44.72C236.562 42.8427 236.2 41.1787 235.475 39.728C234.792 38.2347 233.811 37.0827 232.531 36.272C231.251 35.4187 229.757 34.992 228.051 34.992ZM209.619 27.632H219.475V74.416H209.619V27.632ZM253.241 17.2H264.505L278.457 45.104L292.281 17.2H303.481V62H294.393V31.152L281.657 57.456H275.129L262.329 31.152V62H253.241V17.2ZM335.7 42.032C335.657 40.4533 335.316 39.1093 334.676 38C334.079 36.848 333.204 35.952 332.052 35.312C330.9 34.672 329.577 34.352 328.084 34.352C326.42 34.352 324.969 34.7787 323.732 35.632C322.495 36.4853 321.535 37.6587 320.852 39.152C320.169 40.6453 319.828 42.3733 319.828 44.336C319.828 46.5547 320.212 48.4533 320.98 50.032C321.748 51.6107 322.836 52.8267 324.244 53.68C325.652 54.5333 327.273 54.96 329.108 54.96C332.436 54.96 335.337 53.7227 337.812 51.248L342.996 56.368C341.289 58.288 339.177 59.76 336.66 60.784C334.185 61.808 331.391 62.32 328.276 62.32C324.607 62.32 321.428 61.5947 318.74 60.144C316.052 58.6933 313.961 56.6667 312.468 54.064C311.017 51.4187 310.292 48.368 310.292 44.912C310.292 41.3707 311.039 38.2987 312.532 35.696C314.025 33.0507 316.095 31.0027 318.74 29.552C321.428 28.1013 324.521 27.3547 328.02 27.312C332.073 27.312 335.38 28.1653 337.94 29.872C340.543 31.536 342.42 33.904 343.572 36.976C344.767 40.0053 345.215 43.6107 344.916 47.792H318.42V42.032H335.7ZM364.48 27.248C367.509 27.248 370.09 27.9733 372.224 29.424C374.357 30.832 376 32.8373 377.152 35.44C378.304 38.0427 378.88 41.136 378.88 44.72C378.88 48.3467 378.304 51.4827 377.152 54.128C376.042 56.7733 374.421 58.8213 372.288 60.272C370.197 61.68 367.68 62.384 364.736 62.384C361.493 62.384 358.634 61.6587 356.16 60.208C353.728 58.7147 351.829 56.6453 350.464 54C349.141 51.312 348.48 48.1973 348.48 44.656C348.48 41.2 349.141 38.1707 350.464 35.568C351.829 32.9653 353.706 30.9387 356.095 29.488C358.485 27.9947 361.28 27.248 364.48 27.248ZM367.04 35.12C365.333 35.12 363.818 35.5467 362.496 36.4C361.216 37.2107 360.213 38.3627 359.488 39.856C358.762 41.3493 358.378 43.056 358.336 44.976C358.378 46.8533 358.762 48.5387 359.488 50.032C360.213 51.4827 361.216 52.6347 362.496 53.488C363.818 54.2987 365.333 54.704 367.04 54.704C368.704 54.704 370.176 54.2987 371.456 53.488C372.778 52.6347 373.802 51.4827 374.528 50.032C375.253 48.5387 375.616 46.8533 375.616 44.976C375.616 43.0133 375.253 41.3067 374.528 39.856C373.802 38.3627 372.778 37.2107 371.456 36.4C370.176 35.5467 368.704 35.12 367.04 35.12ZM375.616 14.512H385.408V62H375.616V14.512Z" fill="#0B0A0C"/>
<path d="M449.264 30.512C447.685 29.5307 446 28.6987 444.208 28.016C442.459 27.2907 440.752 26.736 439.088 26.352C437.467 25.9253 436.037 25.712 434.8 25.712C433.392 25.712 432.261 25.9893 431.408 26.544C430.555 27.056 430.128 27.8667 430.128 28.976C430.128 30.0853 430.533 31.0027 431.344 31.728C432.197 32.4107 433.328 32.9867 434.736 33.456C436.144 33.9253 437.701 34.3947 439.408 34.864C441.115 35.3333 442.8 35.888 444.464 36.528C446.128 37.168 447.664 38 449.072 39.024C450.48 40.0053 451.611 41.2853 452.464 42.864C453.317 44.4427 453.744 46.4053 453.744 48.752C453.744 51.7813 452.933 54.3413 451.312 56.432C449.691 58.48 447.515 60.0373 444.784 61.104C442.053 62.128 439.024 62.64 435.696 62.64C433.179 62.64 430.661 62.3627 428.144 61.808C425.669 61.2107 423.301 60.3787 421.04 59.312C418.821 58.2027 416.816 56.9013 415.024 55.408L419.568 46.384C421.104 47.7493 422.832 48.944 424.752 49.968C426.672 50.992 428.613 51.8027 430.576 52.4C432.539 52.9547 434.288 53.232 435.824 53.232C437.573 53.232 438.939 52.912 439.92 52.272C440.944 51.5893 441.456 50.608 441.456 49.328C441.456 48.2187 441.029 47.3227 440.176 46.64C439.323 45.9147 438.192 45.3173 436.784 44.848C435.376 44.3787 433.819 43.9307 432.112 43.504C430.448 43.0347 428.763 42.5013 427.056 41.904C425.392 41.264 423.856 40.4747 422.448 39.536C421.04 38.5547 419.909 37.296 419.056 35.76C418.245 34.224 417.84 32.304 417.84 30C417.84 27.2267 418.565 24.816 420.016 22.768C421.509 20.6773 423.6 19.0773 426.288 17.968C429.019 16.816 432.176 16.24 435.76 16.24C439.045 16.24 442.267 16.7093 445.424 17.648C448.581 18.5867 451.333 19.8027 453.68 21.296L449.264 30.512ZM481.423 41.712C481.466 40.304 481.21 39.1093 480.655 38.128C480.143 37.104 479.396 36.3147 478.415 35.76C477.434 35.2053 476.303 34.928 475.023 34.928C473.53 34.928 472.25 35.3333 471.183 36.144C470.159 36.912 469.348 38 468.751 39.408C468.196 40.7733 467.919 42.3733 467.919 44.208C467.919 46.2133 468.26 47.9413 468.943 49.392C469.626 50.8427 470.586 51.9733 471.823 52.784C473.103 53.552 474.575 53.936 476.239 53.936C479.311 53.936 482.02 52.7627 484.367 50.416L490.319 56.304C488.57 58.224 486.415 59.7173 483.855 60.784C481.338 61.8507 478.458 62.384 475.215 62.384C471.46 62.384 468.196 61.6587 465.423 60.208C462.692 58.7573 460.58 56.7093 459.087 54.064C457.636 51.4187 456.911 48.3467 456.911 44.848C456.911 41.264 457.658 38.1493 459.151 35.504C460.644 32.816 462.756 30.7467 465.487 29.296C468.218 27.8027 471.375 27.056 474.959 27.056C479.012 27.056 482.362 27.9093 485.007 29.616C487.695 31.28 489.658 33.6693 490.895 36.784C492.175 39.8987 492.687 43.5467 492.431 47.728H466.319V41.712H481.423ZM511.09 47.28C509.468 47.28 508.252 47.5787 507.442 48.176C506.674 48.7307 506.29 49.6267 506.29 50.864C506.29 52.1013 506.695 53.0827 507.506 53.808C508.316 54.4907 509.468 54.832 510.962 54.832C512.114 54.832 513.159 54.64 514.098 54.256C515.079 53.872 515.89 53.3387 516.53 52.656C517.212 51.9307 517.66 51.12 517.874 50.224L519.474 55.28C518.535 57.6267 517.042 59.4187 514.994 60.656C512.946 61.8933 510.428 62.512 507.442 62.512C504.967 62.512 502.834 62.0427 501.042 61.104C499.292 60.1653 497.948 58.8853 497.01 57.264C496.071 55.6427 495.602 53.7867 495.602 51.696C495.602 48.4107 496.732 45.8507 498.994 44.016C501.298 42.1813 504.583 41.2427 508.85 41.2H518.962V47.28H511.09ZM517.874 40.816C517.874 39.152 517.319 37.8507 516.21 36.912C515.1 35.9733 513.458 35.504 511.282 35.504C509.831 35.504 508.21 35.7387 506.418 36.208C504.626 36.6773 502.791 37.3813 500.914 38.32L497.778 30.768C499.612 29.9573 501.383 29.2747 503.09 28.72C504.839 28.1227 506.61 27.6747 508.402 27.376C510.194 27.0773 512.028 26.928 513.906 26.928C518.727 26.928 522.439 28.0373 525.042 30.256C527.687 32.432 529.031 35.504 529.074 39.472V62H517.874V40.816ZM559.255 37.232C556.994 36.976 555.01 37.168 553.303 37.808C551.639 38.448 550.338 39.4293 549.399 40.752C548.503 42.032 548.055 43.5893 548.055 45.424L545.367 44.912C545.367 41.1573 545.922 37.936 547.031 35.248C548.183 32.56 549.804 30.512 551.895 29.104C553.986 27.6533 556.439 26.928 559.255 26.928V37.232ZM536.727 27.44H548.119V62H536.727V27.44ZM586.563 39.856C585.795 38.704 584.835 37.8293 583.683 37.232C582.574 36.592 581.272 36.272 579.779 36.272C578.414 36.272 577.198 36.6347 576.131 37.36C575.107 38.0427 574.296 39.024 573.699 40.304C573.144 41.584 572.867 43.0773 572.867 44.784C572.867 46.4907 573.144 47.984 573.699 49.264C574.296 50.544 575.107 51.5467 576.131 52.272C577.198 52.9973 578.414 53.36 579.779 53.36C581.315 53.36 582.638 53.04 583.747 52.4C584.899 51.76 585.838 50.7573 586.563 49.392L594.947 54.192C593.582 56.7947 591.534 58.8213 588.803 60.272C586.072 61.68 582.872 62.384 579.203 62.384C575.662 62.384 572.547 61.6587 569.859 60.208C567.171 58.7573 565.08 56.7093 563.587 54.064C562.136 51.4187 561.411 48.3467 561.411 44.848C561.411 41.264 562.158 38.1493 563.651 35.504C565.144 32.816 567.235 30.7467 569.923 29.296C572.611 27.8027 575.747 27.056 579.331 27.056C582.787 27.056 585.859 27.76 588.547 29.168C591.235 30.5333 593.326 32.496 594.819 35.056L586.563 39.856ZM624.549 43.376C624.549 41.4133 624.015 39.856 622.949 38.704C621.882 37.552 620.453 36.976 618.661 36.976C616.57 37.0187 614.906 37.7867 613.669 39.28C612.474 40.7307 611.877 42.608 611.877 44.912H609.125C609.125 40.9867 609.701 37.7013 610.853 35.056C612.005 32.368 613.647 30.3413 615.781 28.976C617.914 27.6107 620.431 26.928 623.333 26.928C625.893 26.928 628.111 27.4827 629.989 28.592C631.866 29.6587 633.317 31.1947 634.341 33.2C635.407 35.1627 635.941 37.488 635.941 40.176V62H624.549V43.376ZM600.485 14.512H611.877V62H600.485V14.512Z" fill="#08A5B0"/>
<defs>
<linearGradient id="paint0_linear_388_494" x1="4.42812" y1="9.66923" x2="54.373" y2="49.6172" gradientUnits="userSpaceOnUse">
<stop offset="0.0144231" stop-color="#3690DF"/>
<stop offset="1" stop-color="#0FA5AF"/>
</linearGradient>
</defs>
</svg>
