<svg width="176" height="198" viewBox="0 0 176 198" fill="none" xmlns="http://www.w3.org/2000/svg">
<ellipse cx="87.5" cy="98.5" rx="70.5" ry="79.5" fill="white"/>
<path fill-rule="evenodd" clip-rule="evenodd" d="M80.9814 1.24849C79.0564 1.93949 67.8064 8.07948 55.9814 14.8925C44.1564 21.7055 29.5314 30.0705 23.4814 33.4795C8.34643 42.0095 4.83743 44.7165 2.23143 49.8745C-0.00157213 54.2945 -0.0185718 54.6625 0.00342816 98.3665C0.0234282 139.097 0.164428 142.704 1.87743 146.404C2.89543 148.604 5.02343 151.578 6.60543 153.013C9.13643 155.309 32.7964 169.437 69.0474 190.299C81.5524 197.496 87.2564 199.027 94.3074 197.08C98.7004 195.867 161.44 159.226 167.648 154.248C175.413 148.021 175.484 147.516 175.46 98.4045C175.44 56.9695 175.363 55.2405 173.357 50.9045C170.62 44.9885 167.72 42.2625 158.84 37.2555C150.849 32.7495 143.981 28.7715 116.481 12.7175C106.581 6.93849 96.9514 1.69149 95.0824 1.05749C90.7334 -0.417513 85.4234 -0.345511 80.9814 1.24849ZM84.4244 33.2755L86.9814 34.9505V55.4585C86.9814 71.4645 86.6934 76.0775 85.6684 76.4705C84.9474 76.7475 82.3594 76.0685 79.9184 74.9615C74.9314 72.6985 68.9874 72.2985 67.1814 74.1045C65.6704 75.6155 65.6114 85.3105 67.0954 88.2205C67.7074 89.4215 70.7274 92.9885 73.8054 96.1455L79.4024 101.887L80.3444 116.359C81.4224 132.911 81.0354 134.211 75.1684 133.705C71.3864 133.378 71.3294 133.309 67.4394 124.253C64.1744 116.652 61.0794 113.756 53.9104 111.595C47.7324 109.731 44.8434 107.212 42.5254 101.664C41.6114 99.4775 39.7254 97.3065 37.9334 96.3795C31.1434 92.8685 28.8894 83.2655 33.3234 76.7325C35.1504 74.0405 35.4664 72.7455 34.7604 70.8435C34.2634 69.5015 34.1274 66.9555 34.4584 65.1835C35.1374 61.5565 39.4454 55.9045 41.5314 55.9045C42.3034 55.9045 43.3984 54.0425 44.0324 51.6545C45.8504 44.8045 51.6374 39.9045 57.9084 39.9045C60.0104 39.9045 61.4214 39.1615 62.5274 37.4745C63.4024 36.1385 66.0004 34.0885 68.3004 32.9185C73.1834 30.4355 80.3314 30.5935 84.4244 33.2755ZM106.974 32.5185C109.192 33.4055 111.932 35.4305 113.062 37.0185C114.554 39.1125 115.948 39.9045 118.148 39.9045C125.017 39.9045 131.544 45.4395 132.641 52.1945C133.026 54.5675 133.957 55.8485 135.932 56.7225C139.921 58.4885 142.329 63.5385 141.768 68.9615C141.416 72.3625 141.798 74.1075 143.395 76.4045C147.751 82.6695 145.47 91.6385 138.308 96.4045C136.655 97.5045 134.528 100.274 133.582 102.56C131.565 107.43 126.489 111.285 119.958 112.905C114.868 114.168 112.287 117.172 108.63 126.092C105.561 133.579 105.263 133.904 101.457 133.904C96.4224 133.904 95.7974 131.916 96.5024 118.145C96.8324 111.687 97.2824 105.504 97.5004 104.404C97.7194 103.304 100.61 99.4795 103.925 95.9045C112.695 86.4455 115.021 77.3025 109.581 73.6695C107.637 72.3715 103.199 72.8505 97.5314 74.9715C94.4934 76.1085 91.5514 76.7565 90.9944 76.4125C89.7674 75.6545 89.6154 36.0295 90.8324 34.1125C92.8094 30.9945 101.116 30.1745 106.974 32.5185ZM78.4094 80.4375C80.1864 81.2805 83.3494 83.7215 85.4394 85.8615L89.2384 89.7525L91.8184 86.6865C94.2514 83.7945 100.983 79.9745 103.731 79.9265C107.231 79.8645 103.145 89.4545 98.3264 92.6105C95.3224 94.5785 94.5604 92.7095 97.0674 89.5225C99.9114 85.9065 98.0054 86.2265 94.4184 89.9675L91.4814 93.0305L91.1724 112.393C90.9324 127.464 90.5544 132.014 89.4664 132.916C86.3564 135.498 85.8694 132.929 85.9864 114.561C86.0494 104.575 86.0744 95.8425 86.0414 95.1545C86.0084 94.4675 85.1944 93.9025 84.2314 93.9005C79.4184 93.8905 71.9934 86.1625 71.9854 81.1545C71.9804 78.4785 73.8434 78.2705 78.4094 80.4375ZM77.8134 85.5785C79.2894 88.3175 83.8784 92.3405 84.6484 91.5715C85.4174 90.8015 81.3944 86.2125 78.6554 84.7365C77.0874 83.8925 76.9694 84.0105 77.8134 85.5785ZM107.801 139.654L108.12 141.904H88.5514C70.2414 141.904 68.9814 141.786 68.9814 140.071C68.9814 139.062 69.2914 137.928 69.6694 137.549C70.0474 137.171 78.7104 136.983 88.9194 137.133C107.314 137.402 107.484 137.424 107.801 139.654ZM107.481 148.904V151.404L88.7084 151.676C72.6534 151.909 69.8514 151.728 69.3514 150.426C69.0304 149.589 69.0304 148.219 69.3514 147.382C69.8514 146.08 72.6534 145.899 88.7084 146.132L107.481 146.404V148.904ZM101.408 156.786C102.199 158.066 98.2774 162.7 94.9424 164.424C89.0574 167.467 81.3114 165.681 77.0834 160.306C75.9424 158.856 75.2544 157.272 75.5544 156.786C75.8544 156.301 81.6714 155.904 88.4814 155.904C95.2914 155.904 101.108 156.301 101.408 156.786Z" fill="#2C9998"/>
</svg>
