<svg width="661" height="198" viewBox="0 0 661 198" fill="none" xmlns="http://www.w3.org/2000/svg">
<path d="M6.06818 99V29.1818H20.8295V57.9886H50.7955V29.1818H65.5227V99H50.7955V70.1591H20.8295V99H6.06818ZM167.216 29.1818V99H154.466L124.091 55.0568H123.58V99H108.818V29.1818H121.773L151.909 73.0909H152.523V29.1818H167.216ZM265.756 99V29.1818H280.517V86.8295H310.449V99H265.756ZM334.884 99.9886C331.543 99.9886 328.565 99.4091 325.952 98.25C323.338 97.0682 321.27 95.3295 319.747 93.0341C318.247 90.7159 317.497 87.8295 317.497 84.375C317.497 81.4659 318.031 79.0227 319.099 77.0455C320.168 75.0682 321.622 73.4773 323.463 72.2727C325.304 71.0682 327.395 70.1591 329.736 69.5455C332.099 68.9318 334.577 68.5 337.168 68.25C340.213 67.9318 342.668 67.6364 344.531 67.3636C346.395 67.0682 347.747 66.6364 348.588 66.0682C349.429 65.5 349.849 64.6591 349.849 63.5455V63.3409C349.849 61.1818 349.168 59.5114 347.804 58.3295C346.463 57.1477 344.554 56.5568 342.077 56.5568C339.463 56.5568 337.384 57.1364 335.838 58.2955C334.293 59.4318 333.27 60.8636 332.77 62.5909L319.338 61.5C320.02 58.3182 321.361 55.5682 323.361 53.25C325.361 50.9091 327.94 49.1136 331.099 47.8636C334.281 46.5909 337.963 45.9545 342.145 45.9545C345.054 45.9545 347.838 46.2955 350.497 46.9773C353.179 47.6591 355.554 48.7159 357.622 50.1477C359.713 51.5795 361.361 53.4205 362.565 55.6705C363.77 57.8977 364.372 60.5682 364.372 63.6818V99H350.599V91.7386H350.19C349.349 93.375 348.224 94.8182 346.815 96.0682C345.406 97.2955 343.713 98.2614 341.736 98.9659C339.759 99.6477 337.474 99.9886 334.884 99.9886ZM339.043 89.9659C341.179 89.9659 343.065 89.5455 344.702 88.7045C346.338 87.8409 347.622 86.6818 348.554 85.2273C349.486 83.7727 349.952 82.125 349.952 80.2841V74.7273C349.497 75.0227 348.872 75.2955 348.077 75.5455C347.304 75.7727 346.429 75.9886 345.452 76.1932C344.474 76.375 343.497 76.5455 342.52 76.7045C341.543 76.8409 340.656 76.9659 339.861 77.0795C338.156 77.3295 336.668 77.7273 335.395 78.2727C334.122 78.8182 333.134 79.5568 332.429 80.4886C331.724 81.3977 331.372 82.5341 331.372 83.8977C331.372 85.875 332.088 87.3864 333.52 88.4318C334.974 89.4545 336.815 89.9659 339.043 89.9659ZM375.912 99V29.1818H390.435V55.4318H390.878C391.514 54.0227 392.435 52.5909 393.639 51.1364C394.866 49.6591 396.457 48.4318 398.412 47.4545C400.389 46.4545 402.844 45.9545 405.776 45.9545C409.594 45.9545 413.116 46.9545 416.344 48.9545C419.571 50.9318 422.151 53.9205 424.082 57.9205C426.014 61.8977 426.98 66.8864 426.98 72.8864C426.98 78.7273 426.037 83.6591 424.151 87.6818C422.287 91.6818 419.741 94.7159 416.514 96.7841C413.31 98.8295 409.719 99.8523 405.741 99.8523C402.923 99.8523 400.526 99.3864 398.548 98.4545C396.594 97.5227 394.991 96.3523 393.741 94.9432C392.491 93.5114 391.537 92.0682 390.878 90.6136H390.23V99H375.912ZM390.128 72.8182C390.128 75.9318 390.56 78.6477 391.423 80.9659C392.287 83.2841 393.537 85.0909 395.173 86.3864C396.81 87.6591 398.798 88.2955 401.139 88.2955C403.503 88.2955 405.503 87.6477 407.139 86.3523C408.776 85.0341 410.014 83.2159 410.855 80.8977C411.719 78.5568 412.151 75.8636 412.151 72.8182C412.151 69.7955 411.73 67.1364 410.889 64.8409C410.048 62.5455 408.81 60.75 407.173 59.4545C405.537 58.1591 403.526 57.5114 401.139 57.5114C398.776 57.5114 396.776 58.1364 395.139 59.3864C393.526 60.6364 392.287 62.4091 391.423 64.7045C390.56 67 390.128 69.7045 390.128 72.8182Z" fill="#0F264F"/>
<path d="M94.7727 29.1818L93.4432 78.0682H80.9659L79.6023 29.1818H94.7727ZM87.2045 99.8864C84.9545 99.8864 83.0227 99.0909 81.4091 97.5C79.7955 95.8864 79 93.9545 79.0227 91.7045C79 89.4773 79.7955 87.5682 81.4091 85.9773C83.0227 84.3864 84.9545 83.5909 87.2045 83.5909C89.3636 83.5909 91.2614 84.3864 92.8977 85.9773C94.5341 87.5682 95.3636 89.4773 95.3864 91.7045C95.3636 93.2045 94.9659 94.5795 94.1932 95.8295C93.4432 97.0568 92.4545 98.0455 91.2273 98.7955C90 99.5227 88.6591 99.8864 87.2045 99.8864ZM176.753 41.3523V29.1818H234.094V41.3523H212.719V99H198.128V41.3523H176.753Z" fill="#9CCA2B"/>
<path d="M22.4148 150.688C22.2557 149.199 21.5852 148.04 20.4034 147.21C19.233 146.381 17.7102 145.966 15.8352 145.966C14.517 145.966 13.3864 146.165 12.4432 146.562C11.5 146.96 10.7784 147.5 10.2784 148.182C9.77841 148.864 9.52273 149.642 9.51136 150.517C9.51136 151.244 9.67614 151.875 10.0057 152.409C10.3466 152.943 10.8068 153.398 11.3864 153.773C11.9659 154.136 12.608 154.443 13.3125 154.693C14.017 154.943 14.7273 155.153 15.4432 155.324L18.7159 156.142C20.0341 156.449 21.3011 156.864 22.517 157.386C23.7443 157.909 24.8409 158.568 25.8068 159.364C26.7841 160.159 27.5568 161.119 28.125 162.244C28.6932 163.369 28.9773 164.687 28.9773 166.199C28.9773 168.244 28.4545 170.045 27.4091 171.602C26.3636 173.148 24.8523 174.358 22.875 175.233C20.9091 176.097 18.5284 176.528 15.733 176.528C13.017 176.528 10.6591 176.108 8.65909 175.267C6.67045 174.426 5.11364 173.199 3.98864 171.585C2.875 169.972 2.27273 168.006 2.18182 165.688H8.40341C8.49432 166.903 8.86932 167.915 9.52841 168.722C10.1875 169.528 11.0455 170.131 12.1023 170.528C13.1705 170.926 14.3636 171.125 15.6818 171.125C17.0568 171.125 18.2614 170.92 19.2955 170.511C20.3409 170.091 21.1591 169.511 21.75 168.773C22.3409 168.023 22.642 167.148 22.6534 166.148C22.642 165.239 22.375 164.489 21.8523 163.898C21.3295 163.295 20.5966 162.795 19.6534 162.398C18.7216 161.989 17.6307 161.625 16.3807 161.307L12.4091 160.284C9.53409 159.545 7.26136 158.426 5.59091 156.926C3.93182 155.415 3.10227 153.409 3.10227 150.909C3.10227 148.852 3.65909 147.051 4.77273 145.506C5.89773 143.96 7.42614 142.761 9.35795 141.909C11.2898 141.045 13.4773 140.614 15.9205 140.614C18.3977 140.614 20.5682 141.045 22.4318 141.909C24.3068 142.761 25.7784 143.949 26.8466 145.472C27.9148 146.983 28.4659 148.722 28.5 150.688H22.4148ZM40.5128 160.659V176H34.3423V141.091H40.3764V154.267H40.6832C41.2969 152.79 42.2457 151.625 43.5298 150.773C44.8253 149.909 46.473 149.477 48.473 149.477C50.2912 149.477 51.8764 149.858 53.2287 150.619C54.581 151.381 55.6264 152.494 56.3651 153.96C57.1151 155.426 57.4901 157.216 57.4901 159.33V176H51.3196V160.284C51.3196 158.523 50.8651 157.153 49.956 156.176C49.0582 155.187 47.7969 154.693 46.1719 154.693C45.081 154.693 44.1037 154.932 43.2401 155.409C42.3878 155.875 41.7173 156.551 41.2287 157.438C40.7514 158.324 40.5128 159.398 40.5128 160.659ZM71.3139 176.528C69.6548 176.528 68.1605 176.233 66.831 175.642C65.5128 175.04 64.4673 174.153 63.6946 172.983C62.9332 171.812 62.5526 170.369 62.5526 168.653C62.5526 167.176 62.8253 165.955 63.3707 164.989C63.9162 164.023 64.6605 163.25 65.6037 162.67C66.5469 162.091 67.6094 161.653 68.7912 161.358C69.9844 161.051 71.2173 160.83 72.4901 160.693C74.0241 160.534 75.2685 160.392 76.223 160.267C77.1776 160.131 77.8707 159.926 78.3026 159.653C78.7457 159.369 78.9673 158.932 78.9673 158.341V158.239C78.9673 156.955 78.5866 155.96 77.8253 155.256C77.0639 154.551 75.9673 154.199 74.5355 154.199C73.0241 154.199 71.8253 154.528 70.9389 155.188C70.0639 155.847 69.473 156.625 69.1662 157.523L63.4048 156.705C63.8594 155.114 64.6094 153.784 65.6548 152.716C66.7003 151.636 67.9787 150.83 69.4901 150.295C71.0014 149.75 72.6719 149.477 74.5014 149.477C75.7628 149.477 77.0185 149.625 78.2685 149.92C79.5185 150.216 80.6605 150.705 81.6946 151.386C82.7287 152.057 83.5582 152.972 84.1832 154.131C84.8196 155.29 85.1378 156.739 85.1378 158.477V176H79.206V172.403H79.0014C78.6264 173.131 78.098 173.812 77.4162 174.449C76.7457 175.074 75.8991 175.58 74.8764 175.966C73.8651 176.341 72.6776 176.528 71.3139 176.528ZM72.9162 171.994C74.1548 171.994 75.2287 171.75 76.1378 171.261C77.0469 170.761 77.7457 170.102 78.2344 169.284C78.7344 168.466 78.9844 167.574 78.9844 166.608V163.523C78.7912 163.682 78.4616 163.83 77.9957 163.966C77.5412 164.102 77.0298 164.222 76.4616 164.324C75.8935 164.426 75.331 164.517 74.7741 164.597C74.2173 164.676 73.7344 164.744 73.3253 164.801C72.4048 164.926 71.581 165.131 70.8537 165.415C70.1264 165.699 69.5526 166.097 69.1321 166.608C68.7116 167.108 68.5014 167.756 68.5014 168.551C68.5014 169.688 68.9162 170.545 69.7457 171.125C70.5753 171.705 71.6321 171.994 72.9162 171.994ZM97.5128 160.659V176H91.3423V149.818H97.2401V154.267H97.5469C98.1491 152.801 99.1094 151.636 100.428 150.773C101.757 149.909 103.399 149.477 105.354 149.477C107.161 149.477 108.734 149.864 110.075 150.636C111.428 151.409 112.473 152.528 113.212 153.994C113.962 155.46 114.331 157.239 114.32 159.33V176H108.149V160.284C108.149 158.534 107.695 157.165 106.786 156.176C105.888 155.187 104.643 154.693 103.053 154.693C101.973 154.693 101.013 154.932 100.172 155.409C99.3423 155.875 98.6889 156.551 98.2116 157.438C97.7457 158.324 97.5128 159.398 97.5128 160.659ZM131.979 186.364C129.763 186.364 127.859 186.063 126.268 185.46C124.678 184.869 123.399 184.074 122.433 183.074C121.467 182.074 120.797 180.966 120.422 179.75L125.979 178.403C126.229 178.915 126.592 179.42 127.07 179.92C127.547 180.432 128.189 180.852 128.996 181.182C129.814 181.523 130.842 181.693 132.081 181.693C133.831 181.693 135.28 181.267 136.428 180.415C137.575 179.574 138.149 178.188 138.149 176.256V171.295H137.842C137.524 171.932 137.058 172.585 136.445 173.256C135.842 173.926 135.041 174.489 134.041 174.943C133.053 175.398 131.808 175.625 130.308 175.625C128.297 175.625 126.473 175.153 124.837 174.21C123.212 173.256 121.916 171.835 120.95 169.949C119.996 168.051 119.518 165.676 119.518 162.824C119.518 159.949 119.996 157.523 120.95 155.545C121.916 153.557 123.217 152.051 124.854 151.028C126.49 149.994 128.314 149.477 130.325 149.477C131.859 149.477 133.121 149.739 134.109 150.261C135.109 150.773 135.905 151.392 136.496 152.119C137.087 152.835 137.536 153.511 137.842 154.148H138.183V149.818H144.268V176.426C144.268 178.665 143.734 180.517 142.666 181.983C141.598 183.449 140.138 184.545 138.286 185.273C136.433 186 134.331 186.364 131.979 186.364ZM132.03 170.784C133.337 170.784 134.45 170.466 135.371 169.83C136.291 169.193 136.99 168.278 137.467 167.085C137.945 165.892 138.183 164.46 138.183 162.79C138.183 161.142 137.945 159.699 137.467 158.46C137.001 157.222 136.308 156.261 135.388 155.58C134.479 154.886 133.359 154.54 132.03 154.54C130.655 154.54 129.507 154.898 128.587 155.614C127.666 156.33 126.973 157.312 126.507 158.562C126.041 159.801 125.808 161.21 125.808 162.79C125.808 164.392 126.041 165.795 126.507 167C126.984 168.193 127.683 169.125 128.604 169.795C129.536 170.455 130.678 170.784 132.03 170.784ZM156.763 160.659V176H150.592V141.091H156.626V154.267H156.933C157.547 152.79 158.496 151.625 159.78 150.773C161.075 149.909 162.723 149.477 164.723 149.477C166.541 149.477 168.126 149.858 169.479 150.619C170.831 151.381 171.876 152.494 172.615 153.96C173.365 155.426 173.74 157.216 173.74 159.33V176H167.57V160.284C167.57 158.523 167.115 157.153 166.206 156.176C165.308 155.187 164.047 154.693 162.422 154.693C161.331 154.693 160.354 154.932 159.49 155.409C158.638 155.875 157.967 156.551 157.479 157.438C157.001 158.324 156.763 159.398 156.763 160.659ZM187.564 176.528C185.905 176.528 184.411 176.233 183.081 175.642C181.763 175.04 180.717 174.153 179.945 172.983C179.183 171.812 178.803 170.369 178.803 168.653C178.803 167.176 179.075 165.955 179.621 164.989C180.166 164.023 180.911 163.25 181.854 162.67C182.797 162.091 183.859 161.653 185.041 161.358C186.234 161.051 187.467 160.83 188.74 160.693C190.274 160.534 191.518 160.392 192.473 160.267C193.428 160.131 194.121 159.926 194.553 159.653C194.996 159.369 195.217 158.932 195.217 158.341V158.239C195.217 156.955 194.837 155.96 194.075 155.256C193.314 154.551 192.217 154.199 190.786 154.199C189.274 154.199 188.075 154.528 187.189 155.188C186.314 155.847 185.723 156.625 185.416 157.523L179.655 156.705C180.109 155.114 180.859 153.784 181.905 152.716C182.95 151.636 184.229 150.83 185.74 150.295C187.251 149.75 188.922 149.477 190.751 149.477C192.013 149.477 193.268 149.625 194.518 149.92C195.768 150.216 196.911 150.705 197.945 151.386C198.979 152.057 199.808 152.972 200.433 154.131C201.07 155.29 201.388 156.739 201.388 158.477V176H195.456V172.403H195.251C194.876 173.131 194.348 173.812 193.666 174.449C192.996 175.074 192.149 175.58 191.126 175.966C190.115 176.341 188.928 176.528 187.564 176.528ZM189.166 171.994C190.405 171.994 191.479 171.75 192.388 171.261C193.297 170.761 193.996 170.102 194.484 169.284C194.984 168.466 195.234 167.574 195.234 166.608V163.523C195.041 163.682 194.712 163.83 194.246 163.966C193.791 164.102 193.28 164.222 192.712 164.324C192.143 164.426 191.581 164.517 191.024 164.597C190.467 164.676 189.984 164.744 189.575 164.801C188.655 164.926 187.831 165.131 187.104 165.415C186.376 165.699 185.803 166.097 185.382 166.608C184.962 167.108 184.751 167.756 184.751 168.551C184.751 169.688 185.166 170.545 185.996 171.125C186.825 171.705 187.882 171.994 189.166 171.994ZM207.592 176V149.818H213.763V176H207.592ZM210.695 146.102C209.717 146.102 208.876 145.778 208.172 145.131C207.467 144.472 207.115 143.682 207.115 142.761C207.115 141.83 207.467 141.04 208.172 140.392C208.876 139.733 209.717 139.403 210.695 139.403C211.683 139.403 212.524 139.733 213.217 140.392C213.922 141.04 214.274 141.83 214.274 142.761C214.274 143.682 213.922 144.472 213.217 145.131C212.524 145.778 211.683 146.102 210.695 146.102ZM254.293 141.091H260.616V163.898C260.616 166.398 260.026 168.597 258.844 170.494C257.673 172.392 256.026 173.875 253.901 174.943C251.776 176 249.293 176.528 246.452 176.528C243.599 176.528 241.111 176 238.986 174.943C236.861 173.875 235.213 172.392 234.043 170.494C232.872 168.597 232.287 166.398 232.287 163.898V141.091H238.611V163.369C238.611 164.824 238.929 166.119 239.565 167.256C240.213 168.392 241.122 169.284 242.293 169.932C243.463 170.568 244.849 170.886 246.452 170.886C248.054 170.886 249.44 170.568 250.611 169.932C251.793 169.284 252.702 168.392 253.338 167.256C253.974 166.119 254.293 164.824 254.293 163.369V141.091ZM273.388 160.659V176H267.217V149.818H273.115V154.267H273.422C274.024 152.801 274.984 151.636 276.303 150.773C277.632 149.909 279.274 149.477 281.229 149.477C283.036 149.477 284.609 149.864 285.95 150.636C287.303 151.409 288.348 152.528 289.087 153.994C289.837 155.46 290.206 157.239 290.195 159.33V176H284.024V160.284C284.024 158.534 283.57 157.165 282.661 156.176C281.763 155.187 280.518 154.693 278.928 154.693C277.848 154.693 276.888 154.932 276.047 155.409C275.217 155.875 274.564 156.551 274.087 157.438C273.621 158.324 273.388 159.398 273.388 160.659ZM296.467 176V149.818H302.638V176H296.467ZM299.57 146.102C298.592 146.102 297.751 145.778 297.047 145.131C296.342 144.472 295.99 143.682 295.99 142.761C295.99 141.83 296.342 141.04 297.047 140.392C297.751 139.733 298.592 139.403 299.57 139.403C300.558 139.403 301.399 139.733 302.092 140.392C302.797 141.04 303.149 141.83 303.149 142.761C303.149 143.682 302.797 144.472 302.092 145.131C301.399 145.778 300.558 146.102 299.57 146.102ZM332.369 149.818L323.045 176H316.227L306.903 149.818H313.483L319.5 169.267H319.773L325.807 149.818H332.369ZM347.339 176.511C344.714 176.511 342.447 175.966 340.538 174.875C338.641 173.773 337.18 172.216 336.158 170.205C335.135 168.182 334.624 165.801 334.624 163.062C334.624 160.369 335.135 158.006 336.158 155.972C337.192 153.926 338.635 152.335 340.487 151.199C342.339 150.051 344.516 149.477 347.016 149.477C348.629 149.477 350.152 149.739 351.584 150.261C353.027 150.773 354.3 151.568 355.402 152.648C356.516 153.727 357.391 155.102 358.027 156.773C358.663 158.432 358.982 160.409 358.982 162.705V164.597H337.521V160.438H353.067C353.055 159.256 352.8 158.205 352.3 157.284C351.8 156.352 351.101 155.619 350.203 155.085C349.317 154.551 348.283 154.284 347.101 154.284C345.839 154.284 344.732 154.591 343.777 155.205C342.822 155.807 342.078 156.602 341.544 157.591C341.021 158.568 340.754 159.642 340.743 160.812V164.443C340.743 165.966 341.021 167.273 341.578 168.364C342.135 169.443 342.913 170.273 343.913 170.852C344.913 171.42 346.084 171.705 347.425 171.705C348.322 171.705 349.135 171.58 349.862 171.33C350.589 171.068 351.22 170.688 351.754 170.188C352.288 169.688 352.692 169.068 352.964 168.33L358.726 168.977C358.362 170.5 357.669 171.83 356.646 172.966C355.635 174.091 354.339 174.966 352.76 175.591C351.18 176.205 349.374 176.511 347.339 176.511ZM364.202 176V149.818H370.185V154.182H370.457C370.935 152.67 371.753 151.506 372.912 150.688C374.082 149.858 375.418 149.443 376.918 149.443C377.259 149.443 377.639 149.46 378.06 149.494C378.491 149.517 378.849 149.557 379.134 149.614V155.29C378.872 155.199 378.457 155.119 377.889 155.051C377.332 154.972 376.793 154.932 376.27 154.932C375.145 154.932 374.134 155.176 373.236 155.665C372.349 156.142 371.651 156.807 371.139 157.659C370.628 158.511 370.372 159.494 370.372 160.608V176H364.202ZM403.926 156.739L398.301 157.352C398.142 156.784 397.864 156.25 397.466 155.75C397.08 155.25 396.557 154.847 395.898 154.54C395.239 154.233 394.432 154.08 393.477 154.08C392.193 154.08 391.114 154.358 390.239 154.915C389.375 155.472 388.949 156.193 388.96 157.08C388.949 157.841 389.227 158.46 389.795 158.938C390.375 159.415 391.33 159.807 392.659 160.114L397.125 161.068C399.602 161.602 401.443 162.449 402.648 163.608C403.864 164.767 404.477 166.284 404.489 168.159C404.477 169.807 403.994 171.261 403.04 172.523C402.097 173.773 400.784 174.75 399.102 175.455C397.42 176.159 395.489 176.511 393.307 176.511C390.102 176.511 387.523 175.841 385.568 174.5C383.614 173.148 382.449 171.267 382.074 168.858L388.091 168.278C388.364 169.46 388.943 170.352 389.83 170.955C390.716 171.557 391.869 171.858 393.29 171.858C394.756 171.858 395.932 171.557 396.818 170.955C397.716 170.352 398.165 169.608 398.165 168.722C398.165 167.972 397.875 167.352 397.295 166.864C396.727 166.375 395.841 166 394.636 165.739L390.17 164.801C387.659 164.278 385.801 163.398 384.597 162.159C383.392 160.909 382.795 159.33 382.807 157.42C382.795 155.807 383.233 154.409 384.119 153.227C385.017 152.034 386.261 151.114 387.852 150.466C389.455 149.807 391.301 149.477 393.392 149.477C396.46 149.477 398.875 150.131 400.636 151.438C402.409 152.744 403.506 154.511 403.926 156.739ZM409.577 176V149.818H415.747V176H409.577ZM412.679 146.102C411.702 146.102 410.861 145.778 410.156 145.131C409.452 144.472 409.099 143.682 409.099 142.761C409.099 141.83 409.452 141.04 410.156 140.392C410.861 139.733 411.702 139.403 412.679 139.403C413.668 139.403 414.509 139.733 415.202 140.392C415.906 141.04 416.259 141.83 416.259 142.761C416.259 143.682 415.906 144.472 415.202 145.131C414.509 145.778 413.668 146.102 412.679 146.102ZM435.166 149.818V154.591H420.115V149.818H435.166ZM423.831 143.545H430.001V168.125C430.001 168.955 430.126 169.591 430.376 170.034C430.638 170.466 430.979 170.761 431.399 170.92C431.82 171.08 432.286 171.159 432.797 171.159C433.183 171.159 433.536 171.131 433.854 171.074C434.183 171.017 434.433 170.966 434.604 170.92L435.643 175.744C435.314 175.858 434.842 175.983 434.229 176.119C433.626 176.256 432.888 176.335 432.013 176.358C430.467 176.403 429.075 176.17 427.837 175.659C426.598 175.136 425.615 174.33 424.888 173.239C424.172 172.148 423.82 170.784 423.831 169.148V143.545ZM444.162 185.818C443.321 185.818 442.543 185.75 441.827 185.614C441.122 185.489 440.56 185.341 440.139 185.17L441.571 180.364C442.469 180.625 443.27 180.75 443.974 180.739C444.679 180.727 445.298 180.506 445.832 180.074C446.378 179.653 446.838 178.949 447.213 177.96L447.741 176.545L438.247 149.818H444.793L450.827 169.591H451.099L457.151 149.818H463.713L453.23 179.17C452.741 180.557 452.094 181.744 451.287 182.733C450.48 183.733 449.491 184.494 448.321 185.017C447.162 185.551 445.776 185.818 444.162 185.818Z" fill="#0F264F"/>
<path fill-rule="evenodd" clip-rule="evenodd" d="M565.981 1.24849C564.056 1.93949 552.806 8.07949 540.981 14.8925C529.156 21.7055 514.531 30.0705 508.481 33.4795C493.346 42.0095 489.837 44.7165 487.231 49.8745C484.998 54.2945 484.981 54.6625 485.003 98.3665C485.023 139.097 485.164 142.704 486.877 146.404C487.895 148.604 490.023 151.578 491.605 153.013C494.136 155.309 517.796 169.437 554.047 190.299C566.552 197.496 572.256 199.027 579.307 197.08C583.7 195.867 646.44 159.226 652.648 154.248C660.413 148.021 660.484 147.516 660.46 98.4045C660.44 56.9695 660.363 55.2405 658.357 50.9045C655.62 44.9885 652.72 42.2625 643.84 37.2555C635.849 32.7495 628.981 28.7715 601.481 12.7175C591.581 6.93849 581.951 1.69149 580.082 1.05749C575.733 -0.417513 570.423 -0.345511 565.981 1.24849ZM569.424 33.2755L571.981 34.9505V55.4585C571.981 71.4645 571.693 76.0775 570.668 76.4705C569.947 76.7475 567.359 76.0685 564.918 74.9615C559.931 72.6985 553.987 72.2985 552.181 74.1045C550.67 75.6155 550.611 85.3105 552.095 88.2205C552.707 89.4215 555.727 92.9885 558.805 96.1455L564.402 101.887L565.344 116.359C566.422 132.911 566.035 134.211 560.168 133.705C556.386 133.378 556.329 133.309 552.439 124.253C549.174 116.652 546.079 113.756 538.91 111.595C532.732 109.731 529.843 107.212 527.525 101.664C526.611 99.4775 524.725 97.3065 522.933 96.3795C516.143 92.8685 513.889 83.2655 518.323 76.7325C520.15 74.0405 520.466 72.7455 519.76 70.8435C519.263 69.5015 519.127 66.9555 519.458 65.1835C520.137 61.5565 524.445 55.9045 526.531 55.9045C527.303 55.9045 528.398 54.0425 529.032 51.6545C530.85 44.8045 536.637 39.9045 542.908 39.9045C545.01 39.9045 546.421 39.1615 547.527 37.4745C548.402 36.1385 551 34.0885 553.3 32.9185C558.183 30.4355 565.331 30.5935 569.424 33.2755ZM591.974 32.5185C594.192 33.4055 596.932 35.4305 598.062 37.0185C599.554 39.1125 600.948 39.9045 603.148 39.9045C610.017 39.9045 616.544 45.4395 617.641 52.1945C618.026 54.5675 618.957 55.8485 620.932 56.7225C624.921 58.4885 627.329 63.5385 626.768 68.9615C626.416 72.3625 626.798 74.1075 628.395 76.4045C632.751 82.6695 630.47 91.6385 623.308 96.4045C621.655 97.5045 619.528 100.274 618.582 102.56C616.565 107.43 611.489 111.285 604.958 112.905C599.868 114.168 597.287 117.172 593.63 126.092C590.561 133.579 590.263 133.904 586.457 133.904C581.422 133.904 580.797 131.916 581.502 118.145C581.832 111.687 582.282 105.504 582.5 104.404C582.719 103.304 585.61 99.4795 588.925 95.9045C597.695 86.4455 600.021 77.3025 594.581 73.6695C592.637 72.3715 588.199 72.8505 582.531 74.9715C579.493 76.1085 576.551 76.7565 575.994 76.4125C574.767 75.6545 574.615 36.0295 575.832 34.1125C577.809 30.9945 586.116 30.1745 591.974 32.5185ZM563.409 80.4375C565.186 81.2805 568.349 83.7215 570.439 85.8615L574.238 89.7525L576.818 86.6865C579.251 83.7945 585.983 79.9745 588.731 79.9265C592.231 79.8645 588.145 89.4545 583.326 92.6105C580.322 94.5785 579.56 92.7095 582.067 89.5225C584.911 85.9065 583.005 86.2265 579.418 89.9675L576.481 93.0305L576.172 112.393C575.932 127.464 575.554 132.014 574.466 132.916C571.356 135.498 570.869 132.929 570.986 114.561C571.049 104.575 571.074 95.8425 571.041 95.1545C571.008 94.4675 570.194 93.9025 569.231 93.9005C564.418 93.8905 556.993 86.1625 556.985 81.1545C556.98 78.4785 558.843 78.2705 563.409 80.4375ZM562.813 85.5785C564.289 88.3175 568.878 92.3405 569.648 91.5715C570.417 90.8015 566.394 86.2125 563.655 84.7365C562.087 83.8925 561.969 84.0105 562.813 85.5785ZM592.801 139.654L593.12 141.904H573.551C555.241 141.904 553.981 141.786 553.981 140.071C553.981 139.062 554.291 137.928 554.669 137.549C555.047 137.171 563.71 136.983 573.919 137.133C592.314 137.402 592.484 137.424 592.801 139.654ZM592.481 148.904V151.404L573.708 151.676C557.653 151.909 554.851 151.728 554.351 150.426C554.03 149.589 554.03 148.219 554.351 147.382C554.851 146.08 557.653 145.899 573.708 146.132L592.481 146.404V148.904ZM586.408 156.786C587.199 158.066 583.277 162.7 579.942 164.424C574.057 167.467 566.311 165.681 562.083 160.306C560.942 158.856 560.254 157.272 560.554 156.786C560.854 156.301 566.671 155.904 573.481 155.904C580.291 155.904 586.108 156.301 586.408 156.786Z" fill="#2C9998"/>
</svg>
